<svg id="color" enable-background="new 0 0 24 24" height="512" viewBox="0 0 24 24" width="512" xmlns="http://www.w3.org/2000/svg"><path d="m20.27 8.12-3.447 5.318c-.099.1-4.881 4.96-4.588 4.662-.592.592-1.67.465-2.104-.264-.877-1.452 1.425-2.492 3.817-5.233.205-.284.952-.661.571-1.205-.104-.091-.971-1.681-2.992-1.586-1.482.085-2.614 1.249-2.728 1.818h-2.696c0-.021-.011-.042-.011-.063-.898-3.078.928-6.109 3.922-6.883l5.487-1.396z" fill="#ffcc80"/><path d="m23.558 6.777c-1.165 1.105-1.207 1.353-1.565 1.353-.674-.119-5.487-5.535-6.005-5.847-.694-.877-.4-.686.952-2.125.217-.217.546-.205.751 0 5.204 5.486 6.574 5.912 5.867 6.619z" fill="#607d8b"/><path d="m16.02 15.6v7.9c0 .28-.23.5-.5.5-12.605-.205-13.52.46-13.52-.5v-10.5c0-.955 1.073-.302 10.71-.5.01.01-3 3.06-3 3.06h-.01c-2.236 2.236 1.062 5.348 3.15 3.26z" fill="#fafafa"/><path d="m9.71 15.56c-.12.12-.23.25-.32.38.09-.13.19-.26.31-.38z" fill="#fafafa"/><path d="m17 24c-14.502-.382-17 .887-17-1 0-1.893 2.594-.621 17-1 .553 0 1 .448 1 1s-.447 1-1 1z" fill="#607d8b"/></svg>